:SAMPLES-PER-SECOND 30
:FULLY-SPECIFIED
:DEGREES
487
root  0.300137 47.3143 9.22011 178.315 7.92046 -172.372
RightUpLeg  0.85107 -14.7016 -20.1301
RightLeg  8.81278 -12.6211 -2.33854
RightFoot  34.5646 -7.16167 17.4063
RightToes  -5.8209e-011 0 -3.6325e-017
Spine  -3.19461 -0.233401 1.54683
Spine1  12.404 1.84051 -6.70297
HEad  -4.93764 13.9784 1.35231
LeftShoulder1  1.34967 -4.69211 -9.04919
LeftArm  17.4275 25.1175 -29.6498
LeftForeArm  132.756 -63.3875 -156.609
LeftHand  -1.20547 -0.846798 22.43
RightShoulder  0.223345 -15.7046 -11.6482
RightArm  -69.4121 27.4922 -2.55717
RightForeArm  -20.9016 58.6188 20.522
RightHand  -1.34343 3.1246 -18.121
LeftUpLeg  -3.4689 4.64725 11.4368
LeftLeg  6.12957 0.0838838 1.77443
LeftFoot  30.9457 4.2586 -11.4893
LeftToes  6.82088e-011 -2.45093e-011 5.71991e-013
488
root  -0.0610248 46.8178 8.97092 179.389 4.69353 -170.602
RightUpLeg  -0.00969195 -14.9325 -20.8357
RightLeg  8.06916 -14.1045 -2.5055
RightFoot  31.6309 -7.00332 18.2457
RightToes  -5.8209e-011 0 -3.6325e-017
Spine  -4.5735 0.373334 2.66517
Spine1  13.9039 2.40989 -6.6552
HEad  -6.30119 10.866 2.32889
LeftShoulder1  1.23272 -4.32784 -8.24622
LeftArm  21.8165 32.8792 -27.465
LeftForeArm  137.826 -60.8558 -159.288
LeftHand  -1.32366 -1.46221 22.4065
RightShoulder  0.0203745 -15.27 -9.82551
RightArm  -68.7115 27.3204 -1.8369
RightForeArm  -7.9198 67.1178 29.6032
RightHand  -2.27715 6.41015 -22.5895
LeftUpLeg  -3.82142 6.23278 13.1238
LeftLeg  5.12385 1.53805 1.9503
LeftFoot  28.0098 3.7915 -11.0779
LeftToes  6.82088e-011 -2.45093e-011 5.71991e-013
489
root  -0.502477 45.8254 8.78232 179.757 1.74844 -169.402
RightUpLeg  -1.10931 -15.0647 -22.355
RightLeg  8.52209 -14.2303 -3.40765
RightFoot  28.415 -6.13855 17.422
RightToes  -5.8209e-011 0 -3.6325e-017
Spine  -4.047 1.31696 3.69615
Spine1  13.4583 3.3439 -6.54557
HEad  -7.82424 7.12272 4.62467
LeftShoulder1  1.1509 -4.64042 -6.45857
LeftArm  29.2017 39.8533 -25.8332
LeftForeArm  140.835 -59.0221 -160.92
LeftHand  -1.2517 -1.69483 20.5534
RightShoulder  0.0264544 -13.574 -9.92622
RightArm  -64.2692 24.5823 1.54335
RightForeArm  14.3224 74.6342 49.0563
RightHand  -1.97335 5.31816 -21.4473
LeftUpLeg  -3.72087 6.28864 13.778
LeftLeg  5.0238 1.46389 2.0973
LeftFoot  29.954 4.61342 -12.7178
LeftToes  6.82088e-011 -2.45093e-011 5.71991e-013
490
root  -1.01295 44.4465 8.69379 179.518 -2.5961 -168.639
RightUpLeg  -0.952903 -15.4093 -24.7613
RightLeg  8.91965 -14.3614 -4.48247
RightFoot  24.9668 -5.11496 16.0609
RightToes  -5.8209e-011 0 -3.6325e-017
Spine  -2.27227 1.74157 5.26694
Spine1  12.6779 4.1655 -7.60813
HEad  -10.9901 2.53194 7.65062
LeftShoulder1  1.12461 -5.51522 -4.5744
LeftArm  36.0081 44.2811 -25.0964
LeftForeArm  143.109 -58.5284 -161.439
LeftHand  -1.25258 -2.25992 19.1033
RightShoulder  0.00284958 -12.1232 -9.65146
RightArm  -57.6314 20.7418 7.13756
RightForeArm  60.0424 78.4684 93.3992
RightHand  -1.75346 4.13179 -21.3898
LeftUpLeg  -4.74583 3.91546 13.1621
LeftLeg  8.26446 2.08372 2.31951
LeftFoot  30.6664 4.69672 -12.7146
LeftToes  6.82088e-011 -2.45093e-011 5.71991e-013
491
root  -1.50561 42.7669 8.68249 178.469 -7.53716 -168.001
RightUpLeg  1.27753 -15.9537 -27.6456
RightLeg  7.86058 -14.8683 -5.0969
RightFoot  22.872 -4.60892 15.4323
RightToes  -5.8209e-011 0 -3.6325e-017
Spine  0.253769 1.73865 6.72502
Spine1  12.6765 4.75742 -9.34302
HEad  -15.8215 -2.33018 10.2432
LeftShoulder1  1.20799 -6.43861 -4.18354
LeftArm  39.7156 47.2606 -25.8489
LeftForeArm  144.812 -58.1648 -161.827
LeftHand  -1.4007 -3.15648 19.1316
RightShoulder  -0.104666 -11.2151 -8.0859
RightArm  -50.7665 18.5542 12.1892
RightForeArm  96.5512 75.9943 126.586
RightHand  -2.0638 5.48223 -22.0961
LeftUpLeg  -6.30152 0.328012 12.298
LeftLeg  15.3386 4.68394 2.25511
LeftFoot  19.4865 2.41921 -8.91992
LeftToes  6.82088e-011 -2.45093e-011 5.71991e-013
492
root  -1.9434 40.8646 8.70346 176.994 -12.0458 -167.934
RightUpLeg  4.17244 -16.3885 -30.9447
RightLeg  6.34919 -14.9962 -5.57385
RightFoot  22.4305 -4.34534 14.7831
RightToes  -5.8209e-011 0 -3.6325e-017
Spine  2.71313 1.94029 5.98896
Spine1  14.004 4.93689 -8.96229
HEad  -21.4072 -6.81633 12.126
LeftShoulder1  1.37539 -6.30136 -6.36472
LeftArm  39.5361 48.161 -28.8324
LeftForeArm  143.559 -58.4649 -161.592
LeftHand  -1.47138 -3.36812 19.6101
RightShoulder  -0.230978 -9.76456 -5.40774
RightArm  -44.6622 18.6736 15.0945
RightForeArm  109.193 74.4343 134.721
RightHand  -2.06126 6.16472 -20.7686
LeftUpLeg  -7.51104 -1.50968 10.7131
LeftLeg  23.2549 4.72618 2.47497
LeftFoot  -1.59187 0.321607 -3.37247
LeftToes  6.82088e-011 -2.45093e-011 5.71991e-013
493
root  -2.31458 39.0661 8.73421 176.399 -16.2515 -169.268
RightUpLeg  5.48187 -15.7122 -34.0416
RightLeg  6.40841 -15.7838 -7.02269
RightFoot  21.3784 -3.1767 11.2526
RightToes  -5.8209e-011 0 -3.6325e-017
Spine  3.94386 2.49891 3.04118
Spine1  16.6173 5.01693 -7.09586
HEad  -26.6314 -10.7744 14.9392
LeftShoulder1  1.44134 -4.68474 -10.3932
LeftArm  33.8787 43.6367 -34.6923
LeftForeArm  136.464 -63.1365 -157.099
LeftHand  -1.39873 -2.54605 20.5553
RightShoulder  -0.247809 -6.9673 -1.27268
RightArm  -37.8747 19.2059 18.9272
RightForeArm  109.489 75.8868 129.526
RightHand  -1.82225 5.36028 -19.8197
LeftUpLeg  -9.93865 -4.8345 7.67757
LeftLeg  30.9933 4.05272 3.0165
LeftFoot  -18.1865 0.180259 1.91237
LeftToes  6.82088e-011 -2.45093e-011 5.71991e-013
494
root  -2.59549 37.7698 8.72124 176.916 -19.519 -171.148
RightUpLeg  4.12515 -12.2102 -34.6633
RightLeg  8.88138 -19.4539 -9.4321
RightFoot  18.0092 -1.22125 5.10116
RightToes  -5.8209e-011 0 -3.6325e-017
Spine  4.24514 3.22642 1.67573
Spine1  19.3325 6.33207 -7.80011
HEad  -30.4595 -14.5624 19.7087
LeftShoulder1  1.41999 -2.99049 -14.9726
LeftArm  23.365 33.4894 -41.8465
LeftForeArm  116.826 -73.3571 -137.414
LeftHand  -1.45551 -1.74019 23.5814
RightShoulder  0.0359471 -3.28342 5.11828
RightArm  -29.7297 19.404 27.2662
RightForeArm  80.7941 79.0059 93.8068
RightHand  -2.15354 5.94666 -22.0047
LeftUpLeg  -13.6269 -9.08128 4.32755
LeftLeg  38.6082 5.2311 4.86153
LeftFoot  -24.5557 0.641008 4.42349
LeftToes  6.82088e-011 -2.45093e-011 5.71991e-013
495
root  -2.747 37.1888 8.56726 176.899 -20.2343 -171.3
RightUpLeg  1.19059 -8.44276 -31.0966
RightLeg  11.2928 -22.5263 -10.4568
RightFoot  14.5197 -0.355411 2.0766
RightToes  -5.8209e-011 0 -3.6325e-017
Spine  5.50534 4.41527 4.77948
Spine1  20.6182 9.67415 -12.0178
HEad  -32.6875 -18.5487 24.3951
LeftShoulder1  1.57003 -2.68303 -18.7779
LeftArm  10.7048 23.3934 -49.1872
LeftForeArm  63.7814 -79.1794 -79.9455
LeftHand  -1.80261 -1.87677 28.4747
RightShoulder  0.718664 0.108598 13.0223
RightArm  -22.838 20.3158 38.2961
RightForeArm  28.5084 72.3598 36.4659
RightHand  -3.0912 8.11013 -26.4178
LeftUpLeg  -15.5637 -10.691 3.53849
LeftLeg  43.4993 6.25916 6.71003
LeftFoot  -25.7947 0.617996 3.65723
LeftToes  6.82088e-011 -2.45093e-011 5.71991e-013
496
root  -2.76385 37.2164 8.23957 176.062 -19.0368 -169.653
RightUpLeg  -1.43707 -10.1582 -24.6469
RightLeg  9.9533 -18.7735 -7.71695
RightFoot  14.4479 -1.37606 6.32757
RightToes  -5.8209e-011 0 -3.6325e-017
Spine  8.16145 6.2354 8.93541
Spine1  20.3178 13.3897 -15.5609
HEad  -34.5254 -22.343 26.2386
LeftShoulder1  1.79469 -3.23118 -20.2224
LeftArm  -0.786743 18.8667 -56.5673
LeftForeArm  43.5844 -77.347 -56.8239
LeftHand  -2.16824 -2.49927 31.4951
RightShoulder  1.53027 2.43488 19.5089
RightArm  -16.7848 20.7442 47.9791
RightForeArm  9.73994 59.2141 17.8076
RightHand  -3.96756 9.56825 -30.4413
LeftUpLeg  -14.7964 -10.1604 5.35291
LeftLeg  44.2483 6.45291 7.10091
LeftFoot  -26.5952 0.459027 2.22743
LeftToes  6.82088e-011 -2.45093e-011 5.71991e-013
497
root  -2.65655 37.5908 7.79255 176.348 -19.3515 -168.382
RightUpLeg  -3.40305 -12.8052 -18.0091
RightLeg  6.4305 -14.5408 -2.92428
RightFoot  17.0535 -3.25656 13.3169
RightToes  -5.8209e-011 0 -3.6325e-017
Spine  10.2903 8.03006 9.31758
Spine1  19.69 15.2149 -15.0604
HEad  -37.7245 -25.0415 25.7168
LeftShoulder1  1.74863 -3.42669 -18.6583
LeftArm  -5.35994 18.7041 -62.1526
LeftForeArm  68.6375 -79.0619 -83.8797
LeftHand  -2.24153 -3.07882 30.3304
RightShoulder  2.07817 3.72865 22.592
RightArm  -7.67582 18.6478 55.7662
RightForeArm  2.5547 53.6242 15.0509
RightHand  -4.32654 9.89421 -32.3409
LeftUpLeg  -13.6952 -11.2082 7.15003
LeftLeg  41.6026 6.71879 6.74481
LeftFoot  -26.3324 0.405146 1.88254
LeftToes  6.82088e-011 -2.45093e-011 5.71991e-013
498
root  -2.52598 38.1775 7.34182 178.287 -23.1528 -168.295
RightUpLeg  -6.71575 -11.5995 -12.3846
RightLeg  4.55647 -13.464 0.0558496
RightFoot  17.0164 -4.09029 16.5917
RightToes  -5.8209e-011 0 -3.6325e-017
Spine  11.3923 8.54951 7.22245
Spine1  19.0066 14.6223 -12.2233
HEad  -42.2632 -26.3142 25.5051
LeftShoulder1  1.50633 -3.351 -15.1533
LeftArm  -2.23817 18.6511 -62.6992
LeftForeArm  104.527 -77.534 -120.493
LeftHand  -2.1179 -3.5383 27.3549
RightShoulder  2.29569 4.28089 23.344
RightArm  4.71956 15.7883 62.5775
RightForeArm  0.341142 57.1067 17.7425
RightHand  -4.22185 9.70656 -31.9539
LeftUpLeg  -14.1946 -15.0253 7.89617
LeftLeg  37.2259 7.26392 6.26331
LeftFoot  -23.3217 0.349541 1.98034
LeftToes  6.82088e-011 -2.45093e-011 5.71991e-013
499
root  -2.45322 38.8055 6.91996 -179.633 -28.4198 -168.586
RightUpLeg  -12.1434 -8.42341 -7.35885
RightLeg  5.82882 -11.4721 -0.140004
RightFoot  12.6924 -3.57816 17.0861
RightToes  -5.8209e-011 0 -3.6325e-017
Spine  12.3877 7.54106 6.15527
Spine1  18.462 12.7819 -10.2758
HEad  -45.5476 -26.9053 26.2746
LeftShoulder1  1.4045 -4.00702 -11.5793
LeftArm  2.69546 17.7898 -58.155
LeftForeArm  128.002 -74.457 -138.089
LeftHand  -2.17201 -4.46808 25.481
RightShoulder  2.31203 4.38098 23.1585
RightArm  18.6864 15.7138 68.0948
RightForeArm  4.66972 63.0984 22.5997
RightHand  -3.93351 9.52127 -30.2533
LeftUpLeg  -15.3308 -18.4775 8.65194
LeftLeg  32.748 6.79369 5.05083
LeftFoot  -19.3512 0.221835 1.49178
LeftToes  6.82088e-011 -2.45093e-011 5.71991e-013
500
root  -2.52237 39.3008 6.43814 -178.607 -32.4711 -169.007
RightUpLeg  -16.8954 -5.08735 -3.54562
RightLeg  7.05774 -9.92927 -0.819119
RightFoot  9.11118 -2.87866 16.2155
RightToes  -5.8209e-011 0 -3.6325e-017
Spine  12.9705 6.1765 5.98012
Spine1  18.8039 11.0268 -9.47576
HEad  -45.2897 -27.866 26.7811
LeftShoulder1  1.46362 -5.4454 -8.93113
LeftArm  5.21017 17.7779 -52.1091
LeftForeArm  143.019 -72.1129 -146.081
LeftHand  -2.5414 -5.56366 26.7585
RightShoulder  2.18338 4.38562 21.4059
RightArm  32.2048 18.4963 72.2444
RightForeArm  14.7904 68.1894 28.4799
RightHand  -3.69963 9.66185 -28.2967
LeftUpLeg  -14.9272 -19.1647 8.9569
LeftLeg  28.7233 4.87393 3.23541
LeftFoot  -16.5505 0.149869 1.15578
LeftToes  6.82088e-011 -2.45093e-011 5.71991e-013
